# xmcd
#
# Track frame offsets: 
#        150
#        23800
#        60505
#        91355
#        108270
#        136050
#        163165
#        192332
#        215785
#
# Disc length: 3220 seconds
#
# Revision: 5
# Processed by: cddbd v1.5.2PL0 Copyright (c) Steve Scherf et al.
# Submitted via: ExactAudioCopyFreeDBPlugin 1.0
#
DISCID=790c9209
DTITLE=Monty Alexander - Triple Treat II
DYEAR=1987
DGENRE=Jazz
TTITLE0=Lined With A Groove
TTITLE1=Straighten Up And Fly Right
TTITLE2=It Might As Well Be Spring
TTITLE3=Seven Come Eleven
TTITLE4=Fred
TTITLE5=Smile
TTITLE6=Monty Alexander with John Frigo - I'lll Remember April
TTITLE7=Monty Alexander with John Frigo - Polkadots And Moonbeams
TTITLE8=Monty Alexander with John Frigo - Lester Leaps In
EXTD=Monty Alexander with Ray Brown and Herb Ellis\nSpecial Guest - Jo
EXTD=hn Frigo\n
EXTT0=
EXTT1=
EXTT2=
EXTT3=
EXTT4=
EXTT5=
EXTT6=
EXTT7=
EXTT8=
PLAYORDER=
